<svg xmlns="http://www.w3.org/2000/svg" xmlns:xlink="http://www.w3.org/1999/xlink" version="1.1" id="Layer_1" x="0px" y="0px" viewBox="0 0 150 150" enable-background="new 0 0 150 150" xml:space="preserve">
  <g>
    <g>
      <polygon fill="#4ab88a" points="103,110.7 103,143.4 132.3,112.7   " />
      <polygon fill="#3adbb9" points="50.5,84.8 50.5,12 22.9,12 22.9,98.8 22.9,112.7 36.7,112.7 132.4,112.7 131.4,84.8   " />
      <path opacity="0.46" fill="#4ab88a" d="M22.9,14.9v6.9l27.6,26V12H24L22.9,14.9z M131.4,84.8H89.9l29.7,27.9h12.9L131.4,84.8z" />
      <g>
        <polygon fill="none" points="109,59.4 109,34 80.1,34    " />
        <path fill="#FFC77B" d="M23.2,11L132,113V11H23.2z M109,59.4L80.1,34H109V59.4z" />
      </g>
    </g>
    <path fill="#4ab88a" d="M132.4,112.7" />
    <path fill="#4ab88a" d="M132.4,112.7" />
  </g>
</svg>