<?xml version="1.0" standalone="no"?><!DOCTYPE svg PUBLIC "-//W3C//DTD SVG 1.1//EN" "http://www.w3.org/Graphics/SVG/1.1/DTD/svg11.dtd"><svg t="1641172277534" class="icon" viewBox="0 0 1024 1024" version="1.1" xmlns="http://www.w3.org/2000/svg" p-id="9858" xmlns:xlink="http://www.w3.org/1999/xlink" width="32" height="32"><defs><style type="text/css"></style></defs><path d="M512 512m-512 0a512 512 0 1 0 1024 0 512 512 0 1 0-1024 0Z" fill="#BBFFF0" p-id="9859"></path><path d="M808.96 235.52L153.72288 528.92672c-20.6336 9.23648-19.57888 21.22752 2.4064 26.78784L307.2 593.92l207.2064 94.08512 150.03648 81.2032c14.96064 8.0896 29.97248 1.23904 33.536-15.40096L808.96 235.52z" fill="#6DD8C0" p-id="9860"></path><path d="M808.96 235.52L307.2 593.92l69.66272 189.81888c5.8368 15.91296 20.3264 19.2512 32.54272 7.26016l105.00096-102.99392-76.82048-43.15136L808.96 235.52z" fill="#41B79D" p-id="9861"></path></svg>