<?xml version="1.0" standalone="no"?><!DOCTYPE svg PUBLIC "-//W3C//DTD SVG 1.1//EN" "http://www.w3.org/Graphics/SVG/1.1/DTD/svg11.dtd"><svg class="icon" width="32px" height="32.00px" viewBox="0 0 1024 1024" version="1.1" xmlns="http://www.w3.org/2000/svg"><path d="M198.894933 0.648533h625.271467a199.0656 199.0656 0 0 1 198.9632 198.741334v624.64A199.0656 199.0656 0 0 1 824.1664 1022.805333H198.894933A199.0656 199.0656 0 0 1 0.017067 824.0128v-624.64A199.0656 199.0656 0 0 1 198.980267 0.631467z m0 0" fill="#306CFF" /><path d="M435.933867 561.0496h48.315733v255.522133h-85.333333a146.773333 146.773333 0 0 1-27.306667-1.143466 81.322667 81.322667 0 0 1-47.189333-31.232 89.9584 89.9584 0 0 1-17.066667-39.253334 128.699733 128.699733 0 0 1 0-44.373333 100.4544 100.4544 0 0 1 25.002667-43.1616 83.285333 83.285333 0 0 1 35.84-21.572267 55.808 55.808 0 0 1 16.4864-2.850133h50.5856c0.5632-24.405333 0.5632-48.264533 0.5632-72.106667z m-53.435734 115.831467a47.9232 47.9232 0 0 0-23.313066 21.572266 88.968533 88.968533 0 0 0-5.12 27.306667 56.695467 56.695467 0 0 0 9.659733 31.7952 40.3456 40.3456 0 0 0 34.133333 17.595733h38.656v-101.649066h-43.195733a24.1664 24.1664 0 0 0-10.8032 3.413333z m127.8976-40.96h48.247467v119.2448a19.421867 19.421867 0 0 0 19.899733 20.48h51.2v-139.127467h48.366934v180.565333h-117.0944a57.4976 57.4976 0 0 1-34.133334-14.199466 48.605867 48.605867 0 0 1-15.9232-38.0416c-0.5632-43.144533-0.5632-85.742933-0.5632-128.887467z m0 0" fill="#306CFF" /><path d="M414.907733 138.632533a57.1904 57.1904 0 0 1 42.666667 9.659734 106.837333 106.837333 0 0 1 39.799467 55.6544 158.446933 158.446933 0 0 1-2.269867 106.1888 114.773333 114.773333 0 0 1-29.559467 43.7248 60.279467 60.279467 0 0 1-79.0016 2.269866 108.356267 108.356267 0 0 1-36.386133-56.7808 162.338133 162.338133 0 0 1 2.850133-99.9424 108.544 108.544 0 0 1 35.242667-48.827733 54.766933 54.766933 0 0 1 26.709333-11.946667z m216.576 17.066667a48.622933 48.622933 0 0 1 30.72 5.12 94.481067 94.481067 0 0 1 33.536 28.398933 121.326933 121.326933 0 0 1 24.439467 56.7808 98.372267 98.372267 0 0 1-3.976533 42.666667 149.077333 149.077333 0 0 1-22.186667 47.121067 100.0448 100.0448 0 0 1-32.426667 31.232 66.816 66.816 0 0 1-40.362666 9.659733 73.130667 73.130667 0 0 1-47.172267-19.3024 87.364267 87.364267 0 0 1-23.313067-45.4144 178.688 178.688 0 0 1-1.143466-55.0912 126.549333 126.549333 0 0 1 17.066666-44.8512 150.186667 150.186667 0 0 1 32.426667-38.6048 65.024 65.024 0 0 1 32.426667-17.595733z m-389.376 154.453333a71.543467 71.543467 0 0 1 46.08 7.953067 116.053333 116.053333 0 0 1 46.609067 51.0976 78.506667 78.506667 0 0 1 7.970133 27.818667 174.08 174.08 0 0 1-5.12 72.686933 87.04 87.04 0 0 1-25.6 42.018133 89.9072 89.9072 0 0 1-56.849066 21.009067 72.4992 72.4992 0 0 1-47.189334-17.595733 108.168533 108.168533 0 0 1-32.9728-57.924267 122.043733 122.043733 0 0 1-2.850133-45.431467 162.133333 162.133333 0 0 1 25.6-71.543466 71.68 71.68 0 0 1 44.373333-30.088534z m505.9072 56.2176a88.302933 88.302933 0 0 1 55.1424 9.659734 94.6688 94.6688 0 0 1 35.84 37.546666 109.021867 109.021867 0 0 1 12.509867 42.018134 254.8736 254.8736 0 0 1-3.413333 62.464 93.098667 93.098667 0 0 1-17.6128 39.748266 68.949333 68.949333 0 0 1-34.679467 22.698667 114.005333 114.005333 0 0 1-41.489067 2.850133 86.391467 86.391467 0 0 1-46.609066-17.066666 75.639467 75.639467 0 0 1-23.893334-36.334934 200.891733 200.891733 0 0 1-6.263466-58.487466 166.536533 166.536533 0 0 1 11.3664-60.194134 76.8 76.8 0 0 1 29.013333-35.208533 74.922667 74.922667 0 0 1 30.122667-9.659733z m-251.818666 74.9568a104.448 104.448 0 0 1 55.7056 9.079467 156.706133 156.706133 0 0 1 63.146666 60.194133 634.88 634.88 0 0 0 66.56 78.916267 1001.028267 1001.028267 0 0 0 72.192 66.440533c3.976533 3.413333 8.533333 6.826667 12.509867 10.786134a121.019733 121.019733 0 0 1 32.9728 73.250133 164.9152 164.9152 0 0 1-15.906133 84.036267 98.833067 98.833067 0 0 1-42.069334 45.431466 165.7344 165.7344 0 0 1-84.1216 16.469334 314.299733 314.299733 0 0 1-82.432-14.762667 256.1536 256.1536 0 0 0-99.4816-7.3728c-15.36 1.706667-30.72 6.2464-46.08 8.533333a464.964267 464.964267 0 0 1-105.1648 5.12 104.106667 104.106667 0 0 1-75.605333-38.621866 135.8336 135.8336 0 0 1-24.439467-47.701334 131.7376 131.7376 0 0 1-6.826666-49.408 128.4608 128.4608 0 0 1 15.906133-56.2176 206.165333 206.165333 0 0 1 58.555733-64.733866 106.427733 106.427733 0 0 0 19.319467-15.906134c10.8032-10.24 22.186667-19.8656 32.9728-30.088533a359.714133 359.714133 0 0 0 53.998933-63.5904c4.539733-6.826667 7.953067-13.653333 13.073067-19.882667a131.771733 131.771733 0 0 1 85.333333-49.9712z m-60.2624 119.808v71.543467h-50.5856a52.906667 52.906667 0 0 0-16.4864 2.833067 89.224533 89.224533 0 0 0-35.84 21.589333 100.4032 100.4032 0 0 0-25.002667 43.144533 128.768 128.768 0 0 0 0 44.373334 89.890133 89.890133 0 0 0 17.066667 39.253333 83.114667 83.114667 0 0 0 47.172266 31.232 110.165333 110.165333 0 0 0 27.306667 1.1264h85.333333V560.5376c-16.4864 0.5632-32.426667 0.5632-48.896 0.5632z m74.461866 74.9568v128.324267a50.551467 50.551467 0 0 0 15.906134 38.0416 57.514667 57.514667 0 0 0 34.133333 14.199467h117.0944v-180.565334h-48.401067v139.1104h-51.2a17.8688 17.8688 0 0 1-14.779733-6.2464 21.794133 21.794133 0 0 1-5.12-14.199466v-119.2448c-15.36 0.580267-31.266133 0.580267-47.786667 0.580266z m0 0" fill="#FFFFFF" /><path d="M382.498133 676.932267a23.227733 23.227733 0 0 1 10.24-2.850134h43.144534v101.649067H397.226667a40.362667 40.362667 0 0 1-34.133334-17.595733 58.026667 58.026667 0 0 1-9.659733-31.7952 74.820267 74.820267 0 0 1 5.12-27.306667 47.496533 47.496533 0 0 1 23.893333-22.186667z m0 0" fill="#FFFFFF" /></svg>