<?xml version="1.0" standalone="no"?><!DOCTYPE svg PUBLIC "-//W3C//DTD SVG 1.1//EN" "http://www.w3.org/Graphics/SVG/1.1/DTD/svg11.dtd"><svg class="icon" width="32px" height="32.00px" viewBox="0 0 1024 1024" version="1.1" xmlns="http://www.w3.org/2000/svg"><path d="M0 0h1024v1024H0z" fill="#FFFFFF" /><path d="M921.002667 218.666667h-396.586667l-41.258667 159.701333-14.805333 104.96 79.402667 221.525333 12.8 268.8h360.448c33.365333 0 60.373333-27.008 60.373333-60.330666V279.04c0-33.322667-27.008-60.373333-60.373333-60.373333z" fill="#E6E6E6" /><path d="M718.848 805.333333L560.64 973.653333l-56.021333-168.32 22.869333-61.397333 191.274667 61.397333z" fill="#3A5BBC" /><path d="M903.68 490.325333v-38.272h-145.365333V398.506667h-38.272v53.546666h-131.029334v38.272h212.48a840.789333 840.789333 0 0 1-60.501333 106.368c-25.898667-32.341333-42.24-54.869333-42.453333-55.125333l-11.264-15.488-30.933334 22.485333 11.221334 15.488c0.853333 1.194667 19.925333 27.434667 50.133333 64.682667a1466.837333 1466.837333 0 0 1-78.208 86.101333l27.050667 27.050667a1577.557333 1577.557333 0 0 0 75.946666-83.114667c30.165333 35.84 59.605333 68.181333 87.722667 96.298667l13.525333 13.525333 27.050667-27.050666-13.525333-13.525334a1519.189333 1519.189333 0 0 1-91.008-100.437333 861.568 861.568 0 0 0 77.354666-137.258667h60.074667z" fill="#808080" /><path d="M683.093333 698.112l35.498667 107.221333H103.04A60.373333 60.373333 0 0 1 42.666667 744.96V110.677333c0-33.322667 27.008-60.373333 60.373333-60.373333h365.610667l55.722666 168.362667 83.626667 252.501333 75.093333 226.986667z" fill="#518EF8" /><path d="M316.288 569.514667a142.378667 142.378667 0 0 1-142.208-142.208 142.378667 142.378667 0 0 1 142.208-142.165334c37.973333 0 73.685333 14.762667 100.565333 41.642667l-27.050666 27.050667a103.338667 103.338667 0 0 0-73.514667-30.464 104.064 104.064 0 0 0-103.936 103.936 104.064 104.064 0 0 0 103.936 103.978666 104.106667 104.106667 0 0 0 102.186667-84.821333H316.288v-38.272h142.208v19.114667a142.378667 142.378667 0 0 1-142.208 142.208z" fill="#FFFFFF" /></svg>