<?xml version="1.0" standalone="no"?><!DOCTYPE svg PUBLIC "-//W3C//DTD SVG 1.1//EN" "http://www.w3.org/Graphics/SVG/1.1/DTD/svg11.dtd"><svg class="icon" width="32px" height="32.00px" viewBox="0 0 1024 1024" version="1.1" xmlns="http://www.w3.org/2000/svg"><path d="M677.888 623.296L489.408 435.008c-1.152-1.344-2.752-1.856-4.096-2.752 31.872-43.008 51.264-96 51.264-153.792a257.6 257.6 0 1 0-257.6 257.536 256 256 0 0 0 158.656-54.912c0.896 1.024 1.344 2.24 2.24 3.264l188.544 188.544a31.552 31.552 0 0 0 44.672 0l4.736-4.864a31.808 31.808 0 0 0 0.064-44.736z" fill="#9DE8F7" /><path d="M650.816 698.176a47.104 47.104 0 0 1-33.856-14.08L435.52 502.656a270.464 270.464 0 0 1-156.48 49.344A273.92 273.92 0 0 1 5.504 278.464 273.792 273.792 0 0 1 279.04 4.992a273.92 273.92 0 0 1 273.6 273.472 272.64 272.64 0 0 1-45.888 151.232l182.4 182.208c18.56 18.752 18.56 48.96 0 67.52l-4.224 4.48a48.448 48.448 0 0 1-34.112 14.272zM437.632 465.088c4.672 0 9.28 2.048 12.48 5.952 0.32 0.512 1.856 2.688 2.24 3.392l187.2 187.136a16.32 16.32 0 0 0 22.336 0l4.224-4.48a15.616 15.616 0 0 0 0.256-22.528L478.08 446.4a18.048 18.048 0 0 1-7.936-10.944c-0.704-4.352-0.384-9.216 2.24-12.8a239.808 239.808 0 0 0 48.128-144.192A241.728 241.728 0 0 0 278.976 37.056C145.792 37.056 37.504 145.344 37.504 278.464S145.856 520 279.04 520c54.4 0 105.792-17.792 148.736-51.456a15.552 15.552 0 0 1 9.856-3.456z"  /><path d="M121.792 609.792l76.928 21.952-56.832 43.968 64.128 179.584s86.656-67.2 441.472-82.432l119.04-120.96s4.928-283.904 80.64-437.76c4.8-9.92-166.656-65.92-166.656-65.92l-45.696 69.568-31.104-80.64 60.352-115.392 342.592 119.104s-134.912 201.472-109.888 558.656c2.56 37.248-188.672 194.176-188.672 194.176S448 856.512 141.952 1001.792c-30.016 14.272-124.544-337.088-124.544-337.088l104.384-54.912z" fill="#F2385A" /><path d="M140.032 1018.24c-12.032 0-44.096 0-138.112-349.312a16.128 16.128 0 0 1 8-18.368l104.448-54.912a15.872 15.872 0 0 1 11.84-1.216l76.928 21.952a16 16 0 0 1 5.376 28.032l-47.616 36.8 53.76 150.656c40.576-20.16 156.096-62.656 425.856-74.752l110.208-111.936c1.216-43.136 10.688-280.64 76.544-426.304-22.528-10.88-82.752-32.704-140.096-51.712l-38.976 59.392a16.64 16.64 0 0 1-15.04 7.104 15.872 15.872 0 0 1-13.248-10.112L588.8 142.912a16.064 16.064 0 0 1 0.704-13.184l60.352-115.392a16.128 16.128 0 0 1 19.456-7.744l342.592 119.104a16 16 0 0 1 8.064 24c-1.344 1.984-131.584 201.856-107.264 548.672 2.752 39.616-120.704 147.136-194.496 207.68a15.232 15.232 0 0 1-12.352 3.456c-0.32 0-29.568-4.032-78.848-4.032-91.392 0-275.072 14.4-478.144 110.784a24.64 24.64 0 0 1-8.832 1.984zM36.16 672.96c37.44 137.408 84.864 283.264 105.856 311.104 205.952-96.192 391.872-110.656 484.928-110.656 37.952 0 64.32 2.24 76.224 3.584 84.288-69.696 174.848-155.904 177.6-177.088-21.312-302.656 69.888-493.632 101.952-550.464L671.808 41.408l-50.56 96.704 17.344 44.864 28.608-43.584a16 16 0 0 1 18.368-6.464c168.384 55.04 173.376 66.816 176.384 73.92a18.432 18.432 0 0 1-0.32 14.272c-73.28 148.992-78.912 428.288-78.976 431.04a16.192 16.192 0 0 1-4.608 11.008l-119.04 120.96a16 16 0 0 1-10.688 4.736c-341.888 14.656-431.68 78.592-432.512 79.168a16.128 16.128 0 0 1-24.768-7.36l-64.128-179.584a15.936 15.936 0 0 1 5.312-18.048l31.808-24.576-40.32-11.52-87.552 46.016z"  /></svg>